0
SECTION
2
HEADER
9
$INSUNITS
70
4
0
ENDSEC
0
SECTION
2
TABLES
0
TABLE
2
LTYPE
0
LTYPE
72
65
70
64
2
CONTINUOUS
3
______
73
0
40
0
0
ENDTAB
0
TABLE
2
LAYER
0
ENDTAB
0
ENDSEC
0
SECTION
2
ENTITIES
0
LINE
8
0
10
-9
20
28
11
9
21
28
0
LINE
8
0
10
9
20
28
11
9
21
10
0
LINE
8
0
10
9
20
10
11
-9
21
10
0
LINE
8
0
10
-9
20
10
11
-9
21
28
0
LINE
8
0
10
-9
20
47
11
9
21
47
0
LINE
8
0
10
9
20
47
11
9
21
29
0
LINE
8
0
10
9
20
29
11
-9
21
29
0
LINE
8
0
10
-9
20
29
11
-9
21
47
0
LINE
8
0
10
10
20
21
11
28
21
21
0
LINE
8
0
10
28
20
21
11
28
21
3
0
LINE
8
0
10
28
20
3
11
10
21
3
0
LINE
8
0
10
10
20
3
11
10
21
21
0
LINE
8
0
10
10
20
40
11
28
21
40
0
LINE
8
0
10
28
20
40
11
28
21
22
0
LINE
8
0
10
28
20
22
11
10
21
22
0
LINE
8
0
10
10
20
22
11
10
21
40
0
LINE
8
0
10
10
20
59
11
28
21
59
0
LINE
8
0
10
28
20
59
11
28
21
41
0
LINE
8
0
10
28
20
41
11
10
21
41
0
LINE
8
0
10
10
20
41
11
10
21
59
0
LINE
8
0
10
29
20
26
11
47
21
26
0
LINE
8
0
10
47
20
26
11
47
21
8
0
LINE
8
0
10
47
20
8
11
29
21
8
0
LINE
8
0
10
29
20
8
11
29
21
26
0
LINE
8
0
10
29
20
45
11
47
21
45
0
LINE
8
0
10
47
20
45
11
47
21
27
0
LINE
8
0
10
47
20
27
11
29
21
27
0
LINE
8
0
10
29
20
27
11
29
21
45
0
LINE
8
0
10
29
20
64
11
47
21
64
0
LINE
8
0
10
47
20
64
11
47
21
46
0
LINE
8
0
10
47
20
46
11
29
21
46
0
LINE
8
0
10
29
20
46
11
29
21
64
0
LINE
8
0
10
48
20
23
11
66
21
23
0
LINE
8
0
10
66
20
23
11
66
21
5
0
LINE
8
0
10
66
20
5
11
48
21
5
0
LINE
8
0
10
48
20
5
11
48
21
23
0
LINE
8
0
10
48
20
42
11
66
21
42
0
LINE
8
0
10
66
20
42
11
66
21
24
0
LINE
8
0
10
66
20
24
11
48
21
24
0
LINE
8
0
10
48
20
24
11
48
21
42
0
LINE
8
0
10
48
20
61
11
66
21
61
0
LINE
8
0
10
66
20
61
11
66
21
43
0
LINE
8
0
10
66
20
43
11
48
21
43
0
LINE
8
0
10
48
20
43
11
48
21
61
0
LINE
8
0
10
67
20
34
11
85
21
34
0
LINE
8
0
10
85
20
34
11
85
21
16
0
LINE
8
0
10
85
20
16
11
67
21
16
0
LINE
8
0
10
67
20
16
11
67
21
34
0
LINE
8
0
10
67
20
53
11
85
21
53
0
LINE
8
0
10
85
20
53
11
85
21
35
0
LINE
8
0
10
85
20
35
11
67
21
35
0
LINE
8
0
10
67
20
35
11
67
21
53
0
LINE
8
0
10
53.776494
20
-3.3235325
11
71.1631588
21
1.3352103
0
LINE
8
0
10
71.1631588
20
1.3352103
11
75.8219016
21
-16.0514545
0
LINE
8
0
10
75.8219016
20
-16.0514545
11
58.4352368
21
-20.7101973
0
LINE
8
0
10
58.4352368
20
-20.7101973
11
53.776494
21
-3.3235325
0
LINE
8
0
10
83.0335012
20
0.9980008
11
100.5721624
21
-3.0511182
0
LINE
8
0
10
100.5721624
20
-3.0511182
11
96.5230434
21
-20.5897794
0
LINE
8
0
10
96.5230434
20
-20.5897794
11
78.9843822
21
-16.5406604
0
LINE
8
0
10
78.9843822
20
-16.5406604
11
83.0335012
21
0.9980008
0
LINE
8
0
10
111.3889784
20
-7.9516518
11
124.9737509
21
-19.7607143
0
LINE
8
0
10
124.9737509
20
-19.7607143
11
113.1646884
21
-33.3454868
0
LINE
8
0
10
113.1646884
20
-33.3454868
11
99.5799159
21
-21.5364243
0
LINE
8
0
10
99.5799159
20
-21.5364243
11
111.3889784
21
-7.9516518
0
ENDSEC
0
EOF