0
SECTION
2
HEADER
9
$INSUNITS
70
4
0
ENDSEC
0
SECTION
2
TABLES
0
TABLE
2
LTYPE
0
LTYPE
72
65
70
64
2
CONTINUOUS
3
______
73
0
40
0
0
ENDTAB
0
TABLE
2
LAYER
0
ENDTAB
0
ENDSEC
0
SECTION
2
ENTITIES
0
LINE
8
0
10
-9
20
28
11
9
21
28
0
LINE
8
0
10
9
20
28
11
9
21
10
0
LINE
8
0
10
9
20
10
11
-9
21
10
0
LINE
8
0
10
-9
20
10
11
-9
21
28
0
LINE
8
0
10
-9
20
47
11
9
21
47
0
LINE
8
0
10
9
20
47
11
9
21
29
0
LINE
8
0
10
9
20
29
11
-9
21
29
0
LINE
8
0
10
-9
20
29
11
-9
21
47
0
LINE
8
0
10
10
20
21
11
28
21
21
0
LINE
8
0
10
28
20
21
11
28
21
3
0
LINE
8
0
10
28
20
3
11
10
21
3
0
LINE
8
0
10
10
20
3
11
10
21
21
0
LINE
8
0
10
10
20
40
11
28
21
40
0
LINE
8
0
10
28
20
40
11
28
21
22
0
LINE
8
0
10
28
20
22
11
10
21
22
0
LINE
8
0
10
10
20
22
11
10
21
40
0
LINE
8
0
10
10
20
59
11
28
21
59
0
LINE
8
0
10
28
20
59
11
28
21
41
0
LINE
8
0
10
28
20
41
11
10
21
41
0
LINE
8
0
10
10
20
41
11
10
21
59
0
LINE
8
0
10
29.1584424
20
26.1557009
11
47.1557009
21
25.8415576
0
LINE
8
0
10
47.1557009
20
25.8415576
11
46.8415576
21
7.8442991
0
LINE
8
0
10
46.8415576
20
7.8442991
11
28.8442991
21
8.1584424
0
LINE
8
0
10
28.8442991
20
8.1584424
11
29.1584424
21
26.1557009
0
LINE
8
0
10
29.4900381
20
45.1528071
11
47.4872966
21
44.8386638
0
LINE
8
0
10
47.4872966
20
44.8386638
11
47.1731533
21
26.8414053
0
LINE
8
0
10
47.1731533
20
26.8414053
11
29.1758948
21
27.1555486
0
LINE
8
0
10
29.1758948
20
27.1555486
11
29.4900381
21
45.1528071
0
LINE
8
0
10
29.8216338
20
64.1499133
11
47.8188923
21
63.83577
0
LINE
8
0
10
47.8188923
20
63.83577
11
47.504749
21
45.8385115
0
LINE
8
0
10
47.504749
20
45.8385115
11
29.5074905
21
46.1526548
0
LINE
8
0
10
29.5074905
20
46.1526548
11
29.8216338
21
64.1499133
0
LINE
8
0
10
48.5944808
20
23.2747459
11
66.5506337
21
22.0191294
0
LINE
8
0
10
66.5506337
20
22.0191294
11
65.2950172
21
4.0629765
0
LINE
8
0
10
65.2950172
20
4.0629765
11
47.3388643
21
5.318593
0
LINE
8
0
10
47.3388643
20
5.318593
11
48.5944808
21
23.2747459
0
LINE
8
0
10
49.9198538
20
42.2284628
11
67.8760067
21
40.9728463
0
LINE
8
0
10
67.8760067
20
40.9728463
11
66.6203902
21
23.0166934
0
LINE
8
0
10
66.6203902
20
23.0166934
11
48.6642373
21
24.2723099
0
LINE
8
0
10
48.6642373
20
24.2723099
11
49.9198538
21
42.2284628
0
LINE
8
0
10
51.2452268
20
61.1821798
11
69.2013797
21
59.9265633
0
LINE
8
0
10
69.2013797
20
59.9265633
11
67.9457632
21
41.9704104
0
LINE
8
0
10
67.9457632
20
41.9704104
11
49.9896103
21
43.2260269
0
LINE
8
0
10
49.9896103
20
43.2260269
11
51.2452268
21
61.1821798
0
LINE
8
0
10
68.4662402
20
28.0530088
11
86.3977448
21
26.4842054
0
LINE
8
0
10
86.3977448
20
26.4842054
11
84.8289414
21
8.5527008
0
LINE
8
0
10
84.8289414
20
8.5527008
11
66.8974368
21
10.1215042
0
LINE
8
0
10
66.8974368
20
10.1215042
11
68.4662402
21
28.0530088
0
LINE
8
0
10
70.1221994
20
46.980708
11
88.053704
21
45.4119046
0
LINE
8
0
10
88.053704
20
45.4119046
11
86.4849006
21
27.4804
0
LINE
8
0
10
86.4849006
20
27.4804
11
68.553396
21
29.0492034
0
LINE
8
0
10
68.553396
20
29.0492034
11
70.1221994
21
46.980708
0
LINE
8
0
10
41.8203488
20
-1.3554004
11
59.8203488
21
-1.3554004
0
LINE
8
0
10
59.8203488
20
-1.3554004
11
59.8203488
21
-19.3554004
0
LINE
8
0
10
59.8203488
20
-19.3554004
11
41.8203488
21
-19.3554004
0
LINE
8
0
10
41.8203488
20
-19.3554004
11
41.8203488
21
-1.3554004
0
LINE
8
0
10
68.7807517
20
-3.2313784
11
85.8000861
21
-9.0916052
0
LINE
8
0
10
85.8000861
20
-9.0916052
11
79.9398593
21
-26.1109396
0
LINE
8
0
10
79.9398593
20
-26.1109396
11
62.9205249
21
-20.2507128
0
LINE
8
0
10
62.9205249
20
-20.2507128
11
68.7807517
21
-3.2313784
0
LINE
8
0
10
94.0159473
20
-13.1298892
11
108.2001409
21
-24.2117958
0
LINE
8
0
10
108.2001409
20
-24.2117958
11
97.1182343
21
-38.3959894
0
LINE
8
0
10
97.1182343
20
-38.3959894
11
82.9340407
21
-27.3140828
0
LINE
8
0
10
82.9340407
20
-27.3140828
11
94.0159473
21
-13.1298892
0
ENDSEC
0
EOF