0
SECTION
2
HEADER
9
$INSUNITS
70
4
0
ENDSEC
0
SECTION
2
TABLES
0
TABLE
2
LTYPE
0
LTYPE
72
65
70
64
2
CONTINUOUS
3
______
73
0
40
0
0
ENDTAB
0
TABLE
2
LAYER
0
ENDTAB
0
ENDSEC
0
SECTION
2
ENTITIES
0
LINE
8
0
10
-13.7254188
20
26.0117835
11
4.0011208
21
29.1374507
0
LINE
8
0
10
4.0011208
20
29.1374507
11
7.126788
21
11.4109111
0
LINE
8
0
10
7.126788
20
11.4109111
11
-10.5997516
21
8.2852439
0
LINE
8
0
10
-10.5997516
20
8.2852439
11
-13.7254188
21
26.0117835
0
LINE
8
0
10
-17.0247342
20
44.7231308
11
0.7018054
21
47.848798
0
LINE
8
0
10
0.7018054
20
47.848798
11
3.8274726
21
30.1222584
0
LINE
8
0
10
3.8274726
20
30.1222584
11
-13.899067
21
26.9965912
0
LINE
8
0
10
-13.899067
20
26.9965912
11
-17.0247342
21
44.7231308
0
LINE
8
0
10
7.0349506
20
37.2126341
11
25.0102822
21
38.1546813
0
LINE
8
0
10
25.0102822
20
38.1546813
11
25.9523294
21
20.1793497
0
LINE
8
0
10
25.9523294
20
20.1793497
11
7.9769978
21
19.2373025
0
LINE
8
0
10
7.9769978
20
19.2373025
11
7.0349506
21
37.2126341
0
LINE
8
0
10
6.0405676
20
56.1865952
11
24.0158992
21
57.1286424
0
LINE
8
0
10
24.0158992
20
57.1286424
11
24.9579464
21
39.1533108
0
LINE
8
0
10
24.9579464
20
39.1533108
11
6.9826148
21
38.2112636
0
LINE
8
0
10
6.9826148
20
38.2112636
11
6.0405676
21
56.1865952
0
LINE
8
0
10
5.0461844
20
75.1605564
11
23.021516
21
76.1026036
0
LINE
8
0
10
23.021516
20
76.1026036
11
23.9635632
21
58.127272
0
LINE
8
0
10
23.9635632
20
58.127272
11
5.9882316
21
57.1852248
0
LINE
8
0
10
5.9882316
20
57.1852248
11
5.0461844
21
75.1605564
0
LINE
8
0
10
25.8973085
20
43.3639447
11
43.8863434
21
43.9921356
0
LINE
8
0
10
43.8863434
20
43.9921356
11
44.5145343
21
26.0031007
0
LINE
8
0
10
44.5145343
20
26.0031007
11
26.5254994
21
25.3749098
0
LINE
8
0
10
26.5254994
20
25.3749098
11
25.8973085
21
43.3639447
0
LINE
8
0
10
25.2342182
20
62.3523705
11
43.2232531
21
62.9805614
0
LINE
8
0
10
43.2232531
20
62.9805614
11
43.851444
21
44.9915265
0
LINE
8
0
10
43.851444
20
44.9915265
11
25.8624091
21
44.3633356
0
LINE
8
0
10
25.8624091
20
44.3633356
11
25.2342182
21
62.3523705
0
LINE
8
0
10
24.5711277
20
81.3407962
11
42.5601626
21
81.9689871
0
LINE
8
0
10
42.5601626
20
81.9689871
11
43.1883535
21
63.9799522
0
LINE
8
0
10
43.1883535
20
63.9799522
11
25.1993186
21
63.3517613
0
LINE
8
0
10
25.1993186
20
63.3517613
11
24.5711277
21
81.3407962
0
LINE
8
0
10
45.4923876
20
40.5047508
11
63.4896461
21
40.1906075
0
LINE
8
0
10
63.4896461
20
40.1906075
11
63.1755028
21
22.193349
0
LINE
8
0
10
63.1755028
20
22.193349
11
45.1782443
21
22.5074923
0
LINE
8
0
10
45.1782443
20
22.5074923
11
45.4923876
21
40.5047508
0
LINE
8
0
10
45.8239833
20
59.501857
11
63.8212418
21
59.1877137
0
LINE
8
0
10
63.8212418
20
59.1877137
11
63.5070985
21
41.1904552
0
LINE
8
0
10
63.5070985
20
41.1904552
11
45.50984
21
41.5045985
0
LINE
8
0
10
45.50984
20
41.5045985
11
45.8239833
21
59.501857
0
LINE
8
0
10
46.155579
20
78.4989632
11
64.1528375
21
78.1848199
0
LINE
8
0
10
64.1528375
20
78.1848199
11
63.8386942
21
60.1875614
0
LINE
8
0
10
63.8386942
20
60.1875614
11
45.8414357
21
60.5017047
0
LINE
8
0
10
45.8414357
20
60.5017047
11
46.155579
21
78.4989632
0
LINE
8
0
10
64.5942082
20
46.1722411
11
82.5914667
21
45.8580978
0
LINE
8
0
10
82.5914667
20
45.8580978
11
82.2773234
21
27.8608393
0
LINE
8
0
10
82.2773234
20
27.8608393
11
64.2800649
21
28.1749826
0
LINE
8
0
10
64.2800649
20
28.1749826
11
64.5942082
21
46.1722411
0
LINE
8
0
10
64.9258039
20
65.1693475
11
82.9230624
21
64.8552042
0
LINE
8
0
10
82.9230624
20
64.8552042
11
82.6089191
21
46.8579457
0
LINE
8
0
10
82.6089191
20
46.8579457
11
64.6116606
21
47.172089
0
LINE
8
0
10
64.6116606
20
47.172089
11
64.9258039
21
65.1693475
0
LINE
8
0
10
40.0646519
20
14.976746
11
58.0208048
21
16.2323625
0
LINE
8
0
10
58.0208048
20
16.2323625
11
59.2764213
21
-1.7237904
0
LINE
8
0
10
59.2764213
20
-1.7237904
11
41.3202684
21
-2.9794069
0
LINE
8
0
10
41.3202684
20
-2.9794069
11
40.0646519
21
14.976746
0
LINE
8
0
10
67.0902421
20
14.9860003
11
84.4769069
21
10.3272575
0
LINE
8
0
10
84.4769069
20
10.3272575
11
79.8181641
21
-7.0594073
0
LINE
8
0
10
79.8181641
20
-7.0594073
11
62.4314993
21
-2.4006645
0
LINE
8
0
10
62.4314993
20
-2.4006645
11
67.0902421
21
14.9860003
0
LINE
8
0
10
92.9544512
20
6.8719203
11
107.8771275
21
-3.193552
0
LINE
8
0
10
107.8771275
20
-3.193552
11
97.8116552
21
-18.1162283
0
LINE
8
0
10
97.8116552
20
-18.1162283
11
82.8889789
21
-8.050756
0
LINE
8
0
10
82.8889789
20
-8.050756
11
92.9544512
21
6.8719203
0
ENDSEC
0
EOF