0
SECTION
2
HEADER
9
$INSUNITS
70
4
0
ENDSEC
0
SECTION
2
TABLES
0
TABLE
2
LTYPE
0
LTYPE
72
65
70
64
2
CONTINUOUS
3
______
73
0
40
0
0
ENDTAB
0
TABLE
2
LAYER
0
ENDTAB
0
ENDSEC
0
SECTION
2
ENTITIES
0
LINE
8
0
10
-13.7254188
20
26.0117835
11
4.0011208
21
29.1374507
0
LINE
8
0
10
4.0011208
20
29.1374507
11
7.126788
21
11.4109111
0
LINE
8
0
10
7.126788
20
11.4109111
11
-10.5997516
21
8.2852439
0
LINE
8
0
10
-10.5997516
20
8.2852439
11
-13.7254188
21
26.0117835
0
LINE
8
0
10
-17.0247342
20
44.7231308
11
0.7018054
21
47.848798
0
LINE
8
0
10
0.7018054
20
47.848798
11
3.8274726
21
30.1222584
0
LINE
8
0
10
3.8274726
20
30.1222584
11
-13.899067
21
26.9965912
0
LINE
8
0
10
-13.899067
20
26.9965912
11
-17.0247342
21
44.7231308
0
LINE
8
0
10
8.7099373
20
33.2028609
11
26.7071958
21
33.5170042
0
LINE
8
0
10
26.7071958
20
33.5170042
11
27.0213391
21
15.5197457
0
LINE
8
0
10
27.0213391
20
15.5197457
11
9.0240806
21
15.2056024
0
LINE
8
0
10
9.0240806
20
15.2056024
11
8.7099373
21
33.2028609
0
LINE
8
0
10
8.3783416
20
52.1999672
11
26.3756001
21
52.5141105
0
LINE
8
0
10
26.3756001
20
52.5141105
11
26.6897434
21
34.516852
0
LINE
8
0
10
26.6897434
20
34.516852
11
8.6924849
21
34.2027087
0
LINE
8
0
10
8.6924849
20
34.2027087
11
8.3783416
21
52.1999672
0
LINE
8
0
10
8.0467458
20
71.1970733
11
26.0440043
21
71.5112166
0
LINE
8
0
10
26.0440043
20
71.5112166
11
26.3581476
21
53.5139581
0
LINE
8
0
10
26.3581476
20
53.5139581
11
8.3608891
21
53.1998148
0
LINE
8
0
10
8.3608891
20
53.1998148
11
8.0467458
21
71.1970733
0
LINE
8
0
10
27.7754823
20
38.6921376
11
45.7754823
21
38.6921376
0
LINE
8
0
10
45.7754823
20
38.6921376
11
45.7754823
21
20.6921376
0
LINE
8
0
10
45.7754823
20
20.6921376
11
27.7754823
21
20.6921376
0
LINE
8
0
10
27.7754823
20
20.6921376
11
27.7754823
21
38.6921376
0
LINE
8
0
10
27.7754824
20
57.6921375
11
45.7754824
21
57.6921375
0
LINE
8
0
10
45.7754824
20
57.6921375
11
45.7754824
21
39.6921375
0
LINE
8
0
10
45.7754824
20
39.6921375
11
27.7754824
21
39.6921375
0
LINE
8
0
10
27.7754824
20
39.6921375
11
27.7754824
21
57.6921375
0
LINE
8
0
10
27.7754824
20
76.6921376
11
45.7754824
21
76.6921376
0
LINE
8
0
10
45.7754824
20
76.6921376
11
45.7754824
21
58.6921376
0
LINE
8
0
10
45.7754824
20
58.6921376
11
27.7754824
21
58.6921376
0
LINE
8
0
10
27.7754824
20
58.6921376
11
27.7754824
21
76.6921376
0
LINE
8
0
10
47.2588401
20
35.150827
11
65.2341717
21
34.2087798
0
LINE
8
0
10
65.2341717
20
34.2087798
11
64.2921245
21
16.2334482
0
LINE
8
0
10
64.2921245
20
16.2334482
11
46.3167929
21
17.1754954
0
LINE
8
0
10
46.3167929
20
17.1754954
11
47.2588401
21
35.150827
0
LINE
8
0
10
48.2532234
20
54.124788
11
66.228555
21
53.1827408
0
LINE
8
0
10
66.228555
20
53.1827408
11
65.2865078
21
35.2074092
0
LINE
8
0
10
65.2865078
20
35.2074092
11
47.3111762
21
36.1494564
0
LINE
8
0
10
47.3111762
20
36.1494564
11
48.2532234
21
54.124788
0
LINE
8
0
10
49.2476065
20
73.0987492
11
67.2229381
21
72.156702
0
LINE
8
0
10
67.2229381
20
72.156702
11
66.2808909
21
54.1813704
0
LINE
8
0
10
66.2808909
20
54.1813704
11
48.3055593
21
55.1234176
0
LINE
8
0
10
48.3055593
20
55.1234176
11
49.2476065
21
73.0987492
0
LINE
8
0
10
66.6514889
20
42.14548
11
84.6268205
21
41.2034328
0
LINE
8
0
10
84.6268205
20
41.2034328
11
83.6847733
21
23.2281012
0
LINE
8
0
10
83.6847733
20
23.2281012
11
65.7094417
21
24.1701484
0
LINE
8
0
10
65.7094417
20
24.1701484
11
66.6514889
21
42.14548
0
LINE
8
0
10
67.6458722
20
61.1194412
11
85.6212038
21
60.177394
0
LINE
8
0
10
85.6212038
20
60.177394
11
84.6791566
21
42.2020624
0
LINE
8
0
10
84.6791566
20
42.2020624
11
66.703825
21
43.1441096
0
LINE
8
0
10
66.703825
20
43.1441096
11
67.6458722
21
61.1194412
0
LINE
8
0
10
41.0481681
20
11.8250574
11
59.037203
21
12.4532483
0
LINE
8
0
10
59.037203
20
12.4532483
11
59.6653939
21
-5.5357866
0
LINE
8
0
10
59.6653939
20
-5.5357866
11
41.676359
21
-6.1639775
0
LINE
8
0
10
41.676359
20
-6.1639775
11
41.0481681
21
11.8250574
0
LINE
8
0
10
67.9878191
20
12.8899081
11
85.2013047
21
7.6272175
0
LINE
8
0
10
85.2013047
20
7.6272175
11
79.9386141
21
-9.5862681
0
LINE
8
0
10
79.9386141
20
-9.5862681
11
62.7251285
21
-4.3235775
0
LINE
8
0
10
62.7251285
20
-4.3235775
11
67.9878191
21
12.8899081
0
LINE
8
0
10
93.5530952
20
3.878123
11
108.1154011
21
-6.7020115
0
LINE
8
0
10
108.1154011
20
-6.7020115
11
97.5352666
21
-21.2643174
0
LINE
8
0
10
97.5352666
20
-21.2643174
11
82.9729607
21
-10.6841829
0
LINE
8
0
10
82.9729607
20
-10.6841829
11
93.5530952
21
3.878123
0
ENDSEC
0
EOF