0
SECTION
2
HEADER
9
$INSUNITS
70
4
0
ENDSEC
0
SECTION
2
TABLES
0
TABLE
2
LTYPE
0
LTYPE
72
65
70
64
2
CONTINUOUS
3
______
73
0
40
0
0
ENDTAB
0
TABLE
2
LAYER
0
ENDTAB
0
ENDSEC
0
SECTION
2
ENTITIES
0
LINE
8
0
10
85.2653069
20
-2.8117013
11
95.9694413
21
45.1446172
0
LINE
8
0
10
95.9694413
20
45.1446172
11
75.0590213
21
61.2615132
0
LINE
8
0
10
75.0590213
20
61.2615132
11
49.7078783
21
70.1258239
0
LINE
8
0
10
49.7078783
20
70.1258239
11
19.4564858
21
69.8622499
0
LINE
8
0
10
19.4564858
20
69.8622499
11
-10
21
48
0
LINE
8
0
10
-10
20
48
11
-10
21
9
0
LINE
8
0
10
-10
20
9
11
38.8433969
21
-14.1584516
0
LINE
8
0
10
38.8433969
20
-14.1584516
11
68.5864797
21
-20.1269178
0
LINE
8
0
10
68.5864797
20
-20.1269178
11
92.3362953
21
-39.2920841
0
LINE
8
0
10
92.3362953
20
-39.2920841
11
106.7230913
21
-25.3989167
0
LINE
8
0
10
106.7230913
20
-25.3989167
11
85.2653069
21
-2.8117013
0
LINE
8
0
10
-7
20
12
11
7
21
12
0
LINE
8
0
10
7
20
12
11
7
21
26
0
LINE
8
0
10
7
20
26
11
-7
21
26
0
LINE
8
0
10
-7
20
26
11
-7
21
12
0
LINE
8
0
10
-7
20
31
11
7
21
31
0
LINE
8
0
10
7
20
31
11
7
21
45
0
LINE
8
0
10
7
20
45
11
-7
21
45
0
LINE
8
0
10
-7
20
45
11
-7
21
31
0
LINE
8
0
10
13.8156553
20
15.0700878
11
27.643292
21
12.8800053
0
LINE
8
0
10
27.643292
20
12.8800053
11
29.8333745
21
26.707642
0
LINE
8
0
10
29.8333745
20
26.707642
11
16.0057378
21
28.8977245
0
LINE
8
0
10
16.0057378
20
28.8977245
11
13.8156553
21
15.0700878
0
LINE
8
0
10
16.7879102
20
33.8361663
11
30.6155469
21
31.6460838
0
LINE
8
0
10
30.6155469
20
31.6460838
11
32.8056294
21
45.4737205
0
LINE
8
0
10
32.8056294
20
45.4737205
11
18.9779927
21
47.663803
0
LINE
8
0
10
18.9779927
20
47.663803
11
16.7879102
21
33.8361663
0
LINE
8
0
10
19.760165
20
52.6022447
11
33.5878017
21
50.4121622
0
LINE
8
0
10
33.5878017
20
50.4121622
11
35.7778842
21
64.2397989
0
LINE
8
0
10
35.7778842
20
64.2397989
11
21.9502475
21
66.4298814
0
LINE
8
0
10
21.9502475
20
66.4298814
11
19.760165
21
52.6022447
0
LINE
8
0
10
33.2635742
20
17.1769348
11
47.0508827
21
14.7458603
0
LINE
8
0
10
47.0508827
20
14.7458603
11
49.4819572
21
28.5331688
0
LINE
8
0
10
49.4819572
20
28.5331688
11
35.6946487
21
30.9642433
0
LINE
8
0
10
35.6946487
20
30.9642433
11
33.2635742
21
17.1769348
0
LINE
8
0
10
36.5628896
20
35.888282
11
50.3501981
21
33.4572075
0
LINE
8
0
10
50.3501981
20
33.4572075
11
52.7812726
21
47.244516
0
LINE
8
0
10
52.7812726
20
47.244516
11
38.9939641
21
49.6755905
0
LINE
8
0
10
38.9939641
20
49.6755905
11
36.5628896
21
35.888282
0
LINE
8
0
10
39.862205
20
54.5996294
11
53.6495135
21
52.1685549
0
LINE
8
0
10
53.6495135
20
52.1685549
11
56.080588
21
65.9558634
0
LINE
8
0
10
56.080588
20
65.9558634
11
42.2932795
21
68.3869379
0
LINE
8
0
10
42.2932795
20
68.3869379
11
39.862205
21
54.5996294
0
LINE
8
0
10
50.9942725
20
10.3705723
11
64.6354534
21
7.2212576
0
LINE
8
0
10
64.6354534
20
7.2212576
11
67.7847681
21
20.8624385
0
LINE
8
0
10
67.7847681
20
20.8624385
11
54.1435872
21
24.0117532
0
LINE
8
0
10
54.1435872
20
24.0117532
11
50.9942725
21
10.3705723
0
LINE
8
0
10
55.2683426
20
28.8836034
11
68.9095235
21
25.7342887
0
LINE
8
0
10
68.9095235
20
25.7342887
11
72.0588382
21
39.3754696
0
LINE
8
0
10
72.0588382
20
39.3754696
11
58.4176573
21
42.5247843
0
LINE
8
0
10
58.4176573
20
42.5247843
11
55.2683426
21
28.8836034
0
LINE
8
0
10
59.5424126
20
47.3966347
11
73.1835935
21
44.24732
0
LINE
8
0
10
73.1835935
20
44.24732
11
76.3329082
21
57.8885009
0
LINE
8
0
10
76.3329082
20
57.8885009
11
62.6917273
21
61.0378156
0
LINE
8
0
10
62.6917273
20
61.0378156
11
59.5424126
21
47.3966347
0
LINE
8
0
10
71.3069121
20
13.8914627
11
84.948093
21
10.742148
0
LINE
8
0
10
84.948093
20
10.742148
11
88.0974077
21
24.3833289
0
LINE
8
0
10
88.0974077
20
24.3833289
11
74.4562268
21
27.5326436
0
LINE
8
0
10
74.4562268
20
27.5326436
11
71.3069121
21
13.8914627
0
LINE
8
0
10
75.5809823
20
32.404494
11
89.2221632
21
29.2551793
0
LINE
8
0
10
89.2221632
20
29.2551793
11
92.3714779
21
42.8963602
0
LINE
8
0
10
92.3714779
20
42.8963602
11
78.730297
21
46.0456749
0
LINE
8
0
10
78.730297
20
46.0456749
11
75.5809823
21
32.404494
0
LINE
8
0
10
42.2317204
20
-11.6051667
11
56.0954734
21
-13.5535901
0
LINE
8
0
10
56.0954734
20
-13.5535901
11
58.0438968
21
0.3101629
0
LINE
8
0
10
58.0438968
20
0.3101629
11
44.1801438
21
2.2585863
0
LINE
8
0
10
44.1801438
20
2.2585863
11
42.2317204
21
-11.6051667
0
LINE
8
0
10
63.7114055
20
-14.2759648
11
76.1854969
21
-20.6318318
0
LINE
8
0
10
76.1854969
20
-20.6318318
11
82.5413639
21
-8.1577404
0
LINE
8
0
10
82.5413639
20
-8.1577404
11
70.0672725
21
-1.8018734
0
LINE
8
0
10
70.0672725
20
-1.8018734
11
63.7114055
21
-14.2759648
0
LINE
8
0
10
82.6851224
20
-24.9793324
11
92.4103396
21
-35.0500896
0
LINE
8
0
10
92.4103396
20
-35.0500896
11
102.4810968
21
-25.3248724
0
LINE
8
0
10
102.4810968
20
-25.3248724
11
92.7558796
21
-15.2541152
0
LINE
8
0
10
92.7558796
20
-15.2541152
11
82.6851224
21
-24.9793324
0
ENDSEC
0
EOF