0
SECTION
2
HEADER
9
$INSUNITS
70
4
0
ENDSEC
0
SECTION
2
TABLES
0
TABLE
2
LTYPE
0
LTYPE
72
65
70
64
2
CONTINUOUS
3
______
73
0
40
0
0
ENDTAB
0
TABLE
2
LAYER
0
ENDTAB
0
ENDSEC
0
SECTION
2
ENTITIES
0
LINE
8
0
10
-13.7254188
20
26.0117835
11
4.0011208
21
29.1374507
0
LINE
8
0
10
4.0011208
20
29.1374507
11
7.126788
21
11.4109111
0
LINE
8
0
10
7.126788
20
11.4109111
11
-10.5997516
21
8.2852439
0
LINE
8
0
10
-10.5997516
20
8.2852439
11
-13.7254188
21
26.0117835
0
LINE
8
0
10
-17.0247342
20
44.7231308
11
0.7018054
21
47.848798
0
LINE
8
0
10
0.7018054
20
47.848798
11
3.8274726
21
30.1222584
0
LINE
8
0
10
3.8274726
20
30.1222584
11
-13.899067
21
26.9965912
0
LINE
8
0
10
-13.899067
20
26.9965912
11
-17.0247342
21
44.7231308
0
LINE
8
0
10
8.5362891
20
34.1876687
11
26.5335476
21
34.501812
0
LINE
8
0
10
26.5335476
20
34.501812
11
26.8476909
21
16.5045535
0
LINE
8
0
10
26.8476909
20
16.5045535
11
8.8504324
21
16.1904102
0
LINE
8
0
10
8.8504324
20
16.1904102
11
8.5362891
21
34.1876687
0
LINE
8
0
10
8.2046934
20
53.1847749
11
26.2019519
21
53.4989182
0
LINE
8
0
10
26.2019519
20
53.4989182
11
26.5160952
21
35.5016597
0
LINE
8
0
10
26.5160952
20
35.5016597
11
8.5188367
21
35.1875164
0
LINE
8
0
10
8.5188367
20
35.1875164
11
8.2046934
21
53.1847749
0
LINE
8
0
10
7.8730977
20
72.1818811
11
25.8703562
21
72.4960244
0
LINE
8
0
10
25.8703562
20
72.4960244
11
26.1844995
21
54.4987659
0
LINE
8
0
10
26.1844995
20
54.4987659
11
8.187241
21
54.1846226
0
LINE
8
0
10
8.187241
20
54.1846226
11
7.8730977
21
72.1818811
0
LINE
8
0
10
27.6018342
20
39.6769453
11
45.6018342
21
39.6769453
0
LINE
8
0
10
45.6018342
20
39.6769453
11
45.6018342
21
21.6769453
0
LINE
8
0
10
45.6018342
20
21.6769453
11
27.6018342
21
21.6769453
0
LINE
8
0
10
27.6018342
20
21.6769453
11
27.6018342
21
39.6769453
0
LINE
8
0
10
27.6018342
20
58.6769452
11
45.6018342
21
58.6769452
0
LINE
8
0
10
45.6018342
20
58.6769452
11
45.6018342
21
40.6769452
0
LINE
8
0
10
45.6018342
20
40.6769452
11
27.6018342
21
40.6769452
0
LINE
8
0
10
27.6018342
20
40.6769452
11
27.6018342
21
58.6769452
0
LINE
8
0
10
27.6018342
20
77.6769453
11
45.6018342
21
77.6769453
0
LINE
8
0
10
45.6018342
20
77.6769453
11
45.6018342
21
59.6769453
0
LINE
8
0
10
45.6018342
20
59.6769453
11
27.6018342
21
59.6769453
0
LINE
8
0
10
27.6018342
20
59.6769453
11
27.6018342
21
77.6769453
0
LINE
8
0
10
47.085192
20
36.1356347
11
65.0605236
21
35.1935875
0
LINE
8
0
10
65.0605236
20
35.1935875
11
64.1184764
21
17.2182559
0
LINE
8
0
10
64.1184764
20
17.2182559
11
46.1431448
21
18.1603031
0
LINE
8
0
10
46.1431448
20
18.1603031
11
47.085192
21
36.1356347
0
LINE
8
0
10
48.0795752
20
55.1095958
11
66.0549068
21
54.1675486
0
LINE
8
0
10
66.0549068
20
54.1675486
11
65.1128596
21
36.192217
0
LINE
8
0
10
65.1128596
20
36.192217
11
47.137528
21
37.1342642
0
LINE
8
0
10
47.137528
20
37.1342642
11
48.0795752
21
55.1095958
0
LINE
8
0
10
49.0739583
20
74.083557
11
67.0492899
21
73.1415098
0
LINE
8
0
10
67.0492899
20
73.1415098
11
66.1072427
21
55.1661782
0
LINE
8
0
10
66.1072427
20
55.1661782
11
48.1319111
21
56.1082254
0
LINE
8
0
10
48.1319111
20
56.1082254
11
49.0739583
21
74.083557
0
LINE
8
0
10
66.3731689
20
41.1330287
11
84.3485005
21
40.1909815
0
LINE
8
0
10
84.3485005
20
40.1909815
11
83.4064533
21
22.2156499
0
LINE
8
0
10
83.4064533
20
22.2156499
11
65.4311217
21
23.1576971
0
LINE
8
0
10
65.4311217
20
23.1576971
11
66.3731689
21
41.1330287
0
LINE
8
0
10
67.367552
20
60.1069898
11
85.3428836
21
59.1649426
0
LINE
8
0
10
85.3428836
20
59.1649426
11
84.4008364
21
41.189611
0
LINE
8
0
10
84.4008364
20
41.189611
11
66.4255048
21
42.1316582
0
LINE
8
0
10
66.4255048
20
42.1316582
11
67.367552
21
60.1069898
0
LINE
8
0
10
40.7698481
20
10.8126062
11
58.758883
21
11.4407971
0
LINE
8
0
10
58.758883
20
11.4407971
11
59.3870739
21
-6.5482378
0
LINE
8
0
10
59.3870739
20
-6.5482378
11
41.398039
21
-7.1764287
0
LINE
8
0
10
41.398039
20
-7.1764287
11
40.7698481
21
10.8126062
0
LINE
8
0
10
67.779298
20
9.8786752
11
84.9927836
21
4.6159846
0
LINE
8
0
10
84.9927836
20
4.6159846
11
79.730093
21
-12.597501
0
LINE
8
0
10
79.730093
20
-12.597501
11
62.5166074
21
-7.3348104
0
LINE
8
0
10
62.5166074
20
-7.3348104
11
67.779298
21
9.8786752
0
LINE
8
0
10
93.3445741
20
0.86689
11
107.90688
21
-9.7132445
0
LINE
8
0
10
107.90688
20
-9.7132445
11
97.3267455
21
-24.2755504
0
LINE
8
0
10
97.3267455
20
-24.2755504
11
82.7644396
21
-13.6954159
0
LINE
8
0
10
82.7644396
20
-13.6954159
11
93.3445741
21
0.86689
0
ENDSEC
0
EOF